<svg xmlns="http://www.w3.org/2000/svg" xmlns:xlink="http://www.w3.org/1999/xlink" xmlns:lucid="lucid" width="1000.5" height="815.79"><g transform="translate(440.5 95.28875787062884)" lucid:page-tab-id="0_0"><path d="M-500-500h1500v1500H-500z" fill="#fff"/><path d="M-420-69.8a5 5 0 0 1 5-5h270a5 5 0 0 1 5 5v94a5 5 0 0 1-5 5h-270a5 5 0 0 1-5-5z" fill="#fff"/><path d="M-420-34.8v-35a5 5 0 0 1 5-5h270a5 5 0 0 1 5 5v35" fill="#dedeff"/><path d="M-420-69.8a5 5 0 0 1 5-5h270a5 5 0 0 1 5 5v94a5 5 0 0 1-5 5h-270a5 5 0 0 1-5-5zM-420-34.8h280M-280-34.8v64" stroke="#282c33" fill="none"/><use xlink:href="#a" transform="matrix(1,0,0,1,-410,-74.78875787062884) translate(0 23.6)"/><use xlink:href="#b" transform="matrix(1,0,0,1,-415,-32.28875787062884) translate(0 17.1)"/><use xlink:href="#c" transform="matrix(1,0,0,1,-415,-32.28875787062884) translate(5 17.1)"/><use xlink:href="#d" transform="matrix(1,0,0,1,-275,-32.28875787062884) translate(0 17.1)"/><use xlink:href="#e" transform="matrix(1,0,0,1,-415,-0.2887578706288423) translate(0 17.1)"/><use xlink:href="#f" transform="matrix(1,0,0,1,-275,-0.2887578706288423) translate(0 17.1)"/><path d="M-60-69.8a5 5 0 0 1 5-5h250a5 5 0 0 1 5 5v158a5 5 0 0 1-5 5H-55a5 5 0 0 1-5-5z" fill="#fff"/><path d="M-60-34.8v-35a5 5 0 0 1 5-5h250a5 5 0 0 1 5 5v35" fill="#dedeff"/><path d="M-60-69.8a5 5 0 0 1 5-5h250a5 5 0 0 1 5 5v158a5 5 0 0 1-5 5H-55a5 5 0 0 1-5-5zM-60-34.8h260M70-34.8v128" stroke="#282c33" fill="none"/><use xlink:href="#g" transform="matrix(1,0,0,1,-50,-74.78875787062884) translate(0 23.6)"/><use xlink:href="#h" transform="matrix(1,0,0,1,-55,-32.28875787062884) translate(0 17.1)"/><use xlink:href="#d" transform="matrix(1,0,0,1,75,-32.28875787062884) translate(0 17.1)"/><use xlink:href="#i" transform="matrix(1,0,0,1,-55,-0.2887578706288423) translate(0 17.1)"/><use xlink:href="#d" transform="matrix(1,0,0,1,75,-0.2887578706288423) translate(0 17.1)"/><use xlink:href="#j" transform="matrix(1,0,0,1,-55,31.711242129371158) translate(0 17.1)"/><use xlink:href="#f" transform="matrix(1,0,0,1,75,31.711242129371158) translate(0 17.1)"/><use xlink:href="#k" transform="matrix(1,0,0,1,-55,63.71124212937116) translate(0 17.1)"/><use xlink:href="#f" transform="matrix(1,0,0,1,75,63.71124212937116) translate(0 17.1)"/><path d="M-60 185.6a5 5 0 0 1 5-5h249.5a5 5 0 0 1 5 5v222a5 5 0 0 1-5 5H-55a5 5 0 0 1-5-5z" fill="#fff"/><path d="M-60 220.6v-35a5 5 0 0 1 5-5h249.5a5 5 0 0 1 5 5v35" fill="#dedeff"/><path d="M-60 185.6a5 5 0 0 1 5-5h249.5a5 5 0 0 1 5 5v222a5 5 0 0 1-5 5H-55a5 5 0 0 1-5-5zM-60 220.6h259.5M78.28 220.6v192" stroke="#282c33" fill="none"/><use xlink:href="#l" transform="matrix(1,0,0,1,-50,180.60562106468558) translate(0 23.6)"/><use xlink:href="#h" transform="matrix(1,0,0,1,-55,223.10562106468558) translate(0 17.1)"/><use xlink:href="#d" transform="matrix(1,0,0,1,83.27983457586146,223.10562106468558) translate(0 17.1)"/><use xlink:href="#m" transform="matrix(1,0,0,1,-55,255.10562106468558) translate(0 17.1)"/><use xlink:href="#d" transform="matrix(1,0,0,1,83.27983457586146,255.10562106468558) translate(0 17.1)"/><use xlink:href="#n" transform="matrix(1,0,0,1,-55,287.1056210646856) translate(0 17.1)"/><use xlink:href="#o" transform="matrix(1,0,0,1,83.27983457586146,287.1056210646856) translate(0 17.1)"/><use xlink:href="#p" transform="matrix(1,0,0,1,-55,319.1056210646856) translate(0 17.1)"/><use xlink:href="#o" transform="matrix(1,0,0,1,83.27983457586146,319.1056210646856) translate(0 17.1)"/><use xlink:href="#q" transform="matrix(1,0,0,1,-55,351.1056210646856) translate(0 17.1)"/><use xlink:href="#r" transform="matrix(1,0,0,1,83.27983457586146,351.1056210646856) translate(0 17.1)"/><use xlink:href="#s" transform="matrix(1,0,0,1,-55,383.1056210646856) translate(0 17.1)"/><use xlink:href="#t" transform="matrix(1,0,0,1,83.27983457586146,383.1056210646856) translate(0 17.1)"/><path d="M-119.5-18.8h39.6" stroke="#3a414a" fill="none"/><path d="M-119.5-8.8v-20M-139.5-18.8h20" stroke="#3a414a" fill="#fff"/><path d="M-60.73-8.8l-20-10 20-10" stroke="#3a414a" fill="#fff" fill-opacity="0"/><path d="M-60.73-18.8h-20" stroke="#3a414a" fill="#fff"/><path d="M69.75 113.7v47" stroke="#3a414a" fill="none"/><path d="M59.75 113.7h20M69.75 93.7v20" stroke="#3a414a" fill="#fff"/><path d="M59.75 179.88l10-20 10 20" stroke="#3a414a" fill="#fff" fill-opacity="0"/><path d="M69.75 179.88v-20" stroke="#3a414a" fill="#fff"/><path d="M280 185.6a5 5 0 0 1 5-5h249.5a5 5 0 0 1 5 5v126a5 5 0 0 1-5 5H285a5 5 0 0 1-5-5z" fill="#fff"/><path d="M280 220.6v-35a5 5 0 0 1 5-5h249.5a5 5 0 0 1 5 5v35" fill="#dedeff"/><path d="M280 185.6a5 5 0 0 1 5-5h249.5a5 5 0 0 1 5 5v126a5 5 0 0 1-5 5H285a5 5 0 0 1-5-5zM280 220.6h259.5M418.28 220.6v96" stroke="#282c33" fill="none"/><use xlink:href="#u" transform="matrix(1,0,0,1,290,180.60562106468558) translate(0 23.6)"/><use xlink:href="#h" transform="matrix(1,0,0,1,285,223.10562106468558) translate(0 17.1)"/><use xlink:href="#d" transform="matrix(1,0,0,1,423.27983457586146,223.10562106468558) translate(0 17.1)"/><use xlink:href="#v" transform="matrix(1,0,0,1,285,255.10562106468558) translate(0 17.1)"/><use xlink:href="#o" transform="matrix(1,0,0,1,423.27983457586146,255.10562106468558) translate(0 17.1)"/><use xlink:href="#w" transform="matrix(1,0,0,1,285,287.1056210646856) translate(0 17.1)"/><use xlink:href="#o" transform="matrix(1,0,0,1,423.27983457586146,287.1056210646856) translate(0 17.1)"/><path d="M120 505a5 5 0 0 1 5-5h249.5a5 5 0 0 1 5 5v190a5 5 0 0 1-5 5H125a5 5 0 0 1-5-5z" fill="#fff"/><path d="M120 540v-35a5 5 0 0 1 5-5h249.5a5 5 0 0 1 5 5v35" fill="#dedeff"/><path d="M120 505a5 5 0 0 1 5-5h249.5a5 5 0 0 1 5 5v190a5 5 0 0 1-5 5H125a5 5 0 0 1-5-5zM120 540h259.5M258.28 540v160" stroke="#282c33" fill="none"/><use xlink:href="#x" transform="matrix(1,0,0,1,130,500) translate(0 23.6)"/><use xlink:href="#h" transform="matrix(1,0,0,1,125,542.5) translate(0 17.1)"/><use xlink:href="#d" transform="matrix(1,0,0,1,263.27983457586146,542.5) translate(0 17.1)"/><use xlink:href="#y" transform="matrix(1,0,0,1,125,574.5) translate(0 17.1)"/><use xlink:href="#d" transform="matrix(1,0,0,1,263.27983457586146,574.5) translate(0 17.1)"/><use xlink:href="#z" transform="matrix(1,0,0,1,125,606.5) translate(0 17.1)"/><use xlink:href="#d" transform="matrix(1,0,0,1,263.27983457586146,606.5) translate(0 17.1)"/><use xlink:href="#q" transform="matrix(1,0,0,1,125,638.5) translate(0 17.1)"/><use xlink:href="#f" transform="matrix(1,0,0,1,263.27983457586146,638.5) translate(0 17.1)"/><use xlink:href="#A" transform="matrix(1,0,0,1,125,670.5) translate(0 17.1)"/><use xlink:href="#B" transform="matrix(1,0,0,1,263.27983457586146,670.5) translate(0 17.1)"/><path d="M99.5 519.7H81.75a12 12 0 0 1-12-12v-74.6" stroke="#3a414a" fill="none"/><path d="M99.5 509.7v20M119.5 519.7h-20M59.75 433.1h20M69.75 413.1v20" stroke="#3a414a" fill="#fff"/><path d="M400 519.7a9.75 9.75 0 0 0 9.75-9.76V337.1" stroke="#3a414a" fill="none"/><path d="M400 529.7v-20M380 519.7h20M399.75 337.1h20M409.75 317.1v20" stroke="#3a414a" fill="#fff"/><defs><path fill="#333" d="M30-248c118-7 216 8 213 122C240-48 200 0 122 0H30v-248zM63-27c89 8 146-16 146-99s-60-101-146-95v194" id="C"/><path fill="#333" d="M100-194c63 0 86 42 84 106H49c0 40 14 67 53 68 26 1 43-12 49-29l28 8c-11 28-37 45-77 45C44 4 14-33 15-96c1-61 26-98 85-98zm52 81c6-60-76-77-97-28-3 7-6 17-6 28h103" id="D"/><path fill="#333" d="M141-36C126-15 110 5 73 4 37 3 15-17 15-53c-1-64 63-63 125-63 3-35-9-54-41-54-24 1-41 7-42 31l-33-3c5-37 33-52 76-52 45 0 72 20 72 64v82c-1 20 7 32 28 27v20c-31 9-61-2-59-35zM48-53c0 20 12 33 32 33 41-3 63-29 60-74-43 2-92-5-92 41" id="E"/><path fill="#333" d="M24 0v-261h32V0H24" id="F"/><path fill="#333" d="M114-163C36-179 61-72 57 0H25l-1-190h30c1 12-1 29 2 39 6-27 23-49 58-41v29" id="G"/><path fill="#333" d="M135-143c-3-34-86-38-87 0 15 53 115 12 119 90S17 21 10-45l28-5c4 36 97 45 98 0-10-56-113-15-118-90-4-57 82-63 122-42 12 7 21 19 24 35" id="H"/><path fill="#333" d="M106-169C34-169 62-67 57 0H25v-261h32l-1 103c12-21 28-36 61-36 89 0 53 116 60 194h-32v-121c2-32-8-49-39-48" id="I"/><path fill="#333" d="M24-231v-30h32v30H24zM24 0v-190h32V0H24" id="J"/><path fill="#333" d="M115-194c55 1 70 41 70 98S169 2 115 4C84 4 66-9 55-30l1 105H24l-1-265h31l2 30c10-21 28-34 59-34zm-8 174c40 0 45-34 45-75s-6-73-45-74c-42 0-51 32-51 76 0 43 10 73 51 73" id="K"/><g id="a"><use transform="matrix(0.05,0,0,0.05,0,0)" xlink:href="#C"/><use transform="matrix(0.05,0,0,0.05,12.950000000000001,0)" xlink:href="#D"/><use transform="matrix(0.05,0,0,0.05,22.950000000000003,0)" xlink:href="#E"/><use transform="matrix(0.05,0,0,0.05,32.95,0)" xlink:href="#F"/><use transform="matrix(0.05,0,0,0.05,36.900000000000006,0)" xlink:href="#D"/><use transform="matrix(0.05,0,0,0.05,46.900000000000006,0)" xlink:href="#G"/><use transform="matrix(0.05,0,0,0.05,52.85,0)" xlink:href="#H"/><use transform="matrix(0.05,0,0,0.05,61.85,0)" xlink:href="#I"/><use transform="matrix(0.05,0,0,0.05,71.85000000000001,0)" xlink:href="#J"/><use transform="matrix(0.05,0,0,0.05,75.80000000000001,0)" xlink:href="#K"/></g><path fill="#333" d="M33 0v-248h34V0H33" id="L"/><g id="c"><use transform="matrix(0.05,0,0,0.05,0,0)" xlink:href="#L"/><use transform="matrix(0.05,0,0,0.05,5,0)" xlink:href="#C"/></g><path fill="#333" d="M232-93c-1 65-40 97-104 97C67 4 28-28 28-90v-158h33c8 89-33 224 67 224 102 0 64-133 71-224h33v155" id="M"/><g id="d"><use transform="matrix(0.05,0,0,0.05,0,0)" xlink:href="#M"/><use transform="matrix(0.05,0,0,0.05,12.950000000000001,0)" xlink:href="#M"/><use transform="matrix(0.05,0,0,0.05,25.900000000000002,0)" xlink:href="#L"/><use transform="matrix(0.05,0,0,0.05,30.900000000000002,0)" xlink:href="#C"/></g><path fill="#333" d="M190 0L58-211 59 0H30v-248h39L202-35l-2-213h31V0h-41" id="N"/><path fill="#333" d="M210-169c-67 3-38 105-44 169h-31v-121c0-29-5-50-35-48C34-165 62-65 56 0H25l-1-190h30c1 10-1 24 2 32 10-44 99-50 107 0 11-21 27-35 58-36 85-2 47 119 55 194h-31v-121c0-29-5-49-35-48" id="O"/><g id="e"><use transform="matrix(0.05,0,0,0.05,0,0)" xlink:href="#N"/><use transform="matrix(0.05,0,0,0.05,12.950000000000001,0)" xlink:href="#E"/><use transform="matrix(0.05,0,0,0.05,22.950000000000003,0)" xlink:href="#O"/><use transform="matrix(0.05,0,0,0.05,37.900000000000006,0)" xlink:href="#D"/></g><path fill="#333" d="M185-189c-5-48-123-54-124 2 14 75 158 14 163 119 3 78-121 87-175 55-17-10-28-26-33-46l33-7c5 56 141 63 141-1 0-78-155-14-162-118-5-82 145-84 179-34 5 7 8 16 11 25" id="P"/><path fill="#333" d="M59-47c-2 24 18 29 38 22v24C64 9 27 4 27-40v-127H5v-23h24l9-43h21v43h35v23H59v120" id="Q"/><path fill="#333" d="M117-194c89-4 53 116 60 194h-32v-121c0-31-8-49-39-48C34-167 62-67 57 0H25l-1-190h30c1 10-1 24 2 32 11-22 29-35 61-36" id="R"/><path fill="#333" d="M177-190C167-65 218 103 67 71c-23-6-38-20-44-43l32-5c15 47 100 32 89-28v-30C133-14 115 1 83 1 29 1 15-40 15-95c0-56 16-97 71-98 29-1 48 16 59 35 1-10 0-23 2-32h30zM94-22c36 0 50-32 50-73 0-42-14-75-50-75-39 0-46 34-46 75s6 73 46 73" id="S"/><g id="f"><use transform="matrix(0.05,0,0,0.05,0,0)" xlink:href="#P"/><use transform="matrix(0.05,0,0,0.05,12,0)" xlink:href="#Q"/><use transform="matrix(0.05,0,0,0.05,17,0)" xlink:href="#G"/><use transform="matrix(0.05,0,0,0.05,22.95,0)" xlink:href="#J"/><use transform="matrix(0.05,0,0,0.05,26.899999999999995,0)" xlink:href="#R"/><use transform="matrix(0.05,0,0,0.05,36.9,0)" xlink:href="#S"/></g><path fill="#333" d="M30 0v-248h33v221h125V0H30" id="T"/><path fill="#333" d="M100-194c62-1 85 37 85 99 1 63-27 99-86 99S16-35 15-95c0-66 28-99 85-99zM99-20c44 1 53-31 53-75 0-43-8-75-51-75s-53 32-53 75 10 74 51 75" id="U"/><path fill="#333" d="M96-169c-40 0-48 33-48 73s9 75 48 75c24 0 41-14 43-38l32 2c-6 37-31 61-74 61-59 0-76-41-82-99-10-93 101-131 147-64 4 7 5 14 7 22l-32 3c-4-21-16-35-41-35" id="V"/><g id="g"><use transform="matrix(0.05,0,0,0.05,0,0)" xlink:href="#T"/><use transform="matrix(0.05,0,0,0.05,10,0)" xlink:href="#U"/><use transform="matrix(0.05,0,0,0.05,20,0)" xlink:href="#V"/><use transform="matrix(0.05,0,0,0.05,29,0)" xlink:href="#E"/><use transform="matrix(0.05,0,0,0.05,39,0)" xlink:href="#Q"/><use transform="matrix(0.05,0,0,0.05,44,0)" xlink:href="#J"/><use transform="matrix(0.05,0,0,0.05,47.95,0)" xlink:href="#U"/><use transform="matrix(0.05,0,0,0.05,57.95,0)" xlink:href="#R"/></g><path fill="#333" d="M85-194c31 0 48 13 60 33l-1-100h32l1 261h-30c-2-10 0-23-3-31C134-8 116 4 85 4 32 4 16-35 15-94c0-66 23-100 70-100zm9 24c-40 0-46 34-46 75 0 40 6 74 45 74 42 0 51-32 51-76 0-42-9-74-50-73" id="W"/><g id="h"><use transform="matrix(0.05,0,0,0.05,0,0)" xlink:href="#J"/><use transform="matrix(0.05,0,0,0.05,3.95,0)" xlink:href="#W"/></g><path fill="#333" d="M-5 72V49h209v23H-5" id="X"/><g id="i"><use transform="matrix(0.05,0,0,0.05,0,0)" xlink:href="#W"/><use transform="matrix(0.05,0,0,0.05,10,0)" xlink:href="#D"/><use transform="matrix(0.05,0,0,0.05,20,0)" xlink:href="#E"/><use transform="matrix(0.05,0,0,0.05,30,0)" xlink:href="#F"/><use transform="matrix(0.05,0,0,0.05,33.95,0)" xlink:href="#D"/><use transform="matrix(0.05,0,0,0.05,43.95,0)" xlink:href="#G"/><use transform="matrix(0.05,0,0,0.05,49.900000000000006,0)" xlink:href="#H"/><use transform="matrix(0.05,0,0,0.05,58.900000000000006,0)" xlink:href="#I"/><use transform="matrix(0.05,0,0,0.05,68.9,0)" xlink:href="#J"/><use transform="matrix(0.05,0,0,0.05,72.85000000000001,0)" xlink:href="#K"/><use transform="matrix(0.05,0,0,0.05,82.85000000000001,0)" xlink:href="#X"/><use transform="matrix(0.05,0,0,0.05,92.85000000000001,0)" xlink:href="#J"/><use transform="matrix(0.05,0,0,0.05,96.80000000000001,0)" xlink:href="#W"/></g><g id="j"><use transform="matrix(0.05,0,0,0.05,0,0)" xlink:href="#R"/><use transform="matrix(0.05,0,0,0.05,10,0)" xlink:href="#E"/><use transform="matrix(0.05,0,0,0.05,20,0)" xlink:href="#O"/><use transform="matrix(0.05,0,0,0.05,34.95,0)" xlink:href="#D"/></g><g id="k"><use transform="matrix(0.05,0,0,0.05,0,0)" xlink:href="#E"/><use transform="matrix(0.05,0,0,0.05,10,0)" xlink:href="#W"/><use transform="matrix(0.05,0,0,0.05,20,0)" xlink:href="#W"/><use transform="matrix(0.05,0,0,0.05,30,0)" xlink:href="#G"/><use transform="matrix(0.05,0,0,0.05,35.95,0)" xlink:href="#D"/><use transform="matrix(0.05,0,0,0.05,45.95,0)" xlink:href="#H"/><use transform="matrix(0.05,0,0,0.05,54.95,0)" xlink:href="#H"/></g><path fill="#333" d="M137 0h-34L2-248h35l83 218 83-218h36" id="Y"/><g id="l"><use transform="matrix(0.05,0,0,0.05,0,0)" xlink:href="#Y"/><use transform="matrix(0.05,0,0,0.05,11,0)" xlink:href="#D"/><use transform="matrix(0.05,0,0,0.05,21,0)" xlink:href="#I"/><use transform="matrix(0.05,0,0,0.05,31,0)" xlink:href="#J"/><use transform="matrix(0.05,0,0,0.05,34.95,0)" xlink:href="#V"/><use transform="matrix(0.05,0,0,0.05,43.95,0)" xlink:href="#F"/><use transform="matrix(0.05,0,0,0.05,47.900000000000006,0)" xlink:href="#D"/></g><g id="m"><use transform="matrix(0.05,0,0,0.05,0,0)" xlink:href="#F"/><use transform="matrix(0.05,0,0,0.05,3.95,0)" xlink:href="#U"/><use transform="matrix(0.05,0,0,0.05,13.949999999999998,0)" xlink:href="#V"/><use transform="matrix(0.05,0,0,0.05,22.95,0)" xlink:href="#E"/><use transform="matrix(0.05,0,0,0.05,32.95,0)" xlink:href="#Q"/><use transform="matrix(0.05,0,0,0.05,37.95,0)" xlink:href="#J"/><use transform="matrix(0.05,0,0,0.05,41.900000000000006,0)" xlink:href="#U"/><use transform="matrix(0.05,0,0,0.05,51.900000000000006,0)" xlink:href="#R"/><use transform="matrix(0.05,0,0,0.05,61.900000000000006,0)" xlink:href="#X"/><use transform="matrix(0.05,0,0,0.05,71.9,0)" xlink:href="#J"/><use transform="matrix(0.05,0,0,0.05,75.85000000000001,0)" xlink:href="#W"/></g><path fill="#333" d="M143 0L79-87 56-68V0H24v-261h32v163l83-92h37l-77 82L181 0h-38" id="Z"/><g id="n"><use transform="matrix(0.05,0,0,0.05,0,0)" xlink:href="#O"/><use transform="matrix(0.05,0,0,0.05,14.950000000000001,0)" xlink:href="#E"/><use transform="matrix(0.05,0,0,0.05,24.950000000000003,0)" xlink:href="#Z"/><use transform="matrix(0.05,0,0,0.05,33.95,0)" xlink:href="#D"/></g><g id="o"><use transform="matrix(0.05,0,0,0.05,0,0)" xlink:href="#H"/><use transform="matrix(0.05,0,0,0.05,9,0)" xlink:href="#Q"/><use transform="matrix(0.05,0,0,0.05,14,0)" xlink:href="#G"/><use transform="matrix(0.05,0,0,0.05,19.95,0)" xlink:href="#J"/><use transform="matrix(0.05,0,0,0.05,23.9,0)" xlink:href="#R"/><use transform="matrix(0.05,0,0,0.05,33.9,0)" xlink:href="#S"/></g><g id="p"><use transform="matrix(0.05,0,0,0.05,0,0)" xlink:href="#O"/><use transform="matrix(0.05,0,0,0.05,14.950000000000001,0)" xlink:href="#U"/><use transform="matrix(0.05,0,0,0.05,24.950000000000003,0)" xlink:href="#W"/><use transform="matrix(0.05,0,0,0.05,34.95,0)" xlink:href="#D"/><use transform="matrix(0.05,0,0,0.05,44.95,0)" xlink:href="#F"/></g><g id="q"><use transform="matrix(0.05,0,0,0.05,0,0)" xlink:href="#K"/><use transform="matrix(0.05,0,0,0.05,10,0)" xlink:href="#G"/><use transform="matrix(0.05,0,0,0.05,15.949999999999998,0)" xlink:href="#J"/><use transform="matrix(0.05,0,0,0.05,19.9,0)" xlink:href="#V"/><use transform="matrix(0.05,0,0,0.05,28.899999999999995,0)" xlink:href="#D"/></g><path fill="#333" d="M101-234c-31-9-42 10-38 44h38v23H63V0H32v-167H5v-23h27c-7-52 17-82 69-68v24" id="aa"/><g id="r"><use transform="matrix(0.05,0,0,0.05,0,0)" xlink:href="#aa"/><use transform="matrix(0.05,0,0,0.05,5,0)" xlink:href="#F"/><use transform="matrix(0.05,0,0,0.05,8.95,0)" xlink:href="#U"/><use transform="matrix(0.05,0,0,0.05,18.95,0)" xlink:href="#E"/><use transform="matrix(0.05,0,0,0.05,28.950000000000003,0)" xlink:href="#Q"/></g><path fill="#333" d="M179-190L93 31C79 59 56 82 12 73V49c39 6 53-20 64-50L1-190h34L92-34l54-156h33" id="ab"/><g id="s"><use transform="matrix(0.05,0,0,0.05,0,0)" xlink:href="#ab"/><use transform="matrix(0.05,0,0,0.05,9,0)" xlink:href="#D"/><use transform="matrix(0.05,0,0,0.05,19,0)" xlink:href="#E"/><use transform="matrix(0.05,0,0,0.05,29,0)" xlink:href="#G"/></g><g id="t"><use transform="matrix(0.05,0,0,0.05,0,0)" xlink:href="#J"/><use transform="matrix(0.05,0,0,0.05,3.95,0)" xlink:href="#R"/><use transform="matrix(0.05,0,0,0.05,13.949999999999998,0)" xlink:href="#Q"/><use transform="matrix(0.05,0,0,0.05,18.95,0)" xlink:href="#D"/><use transform="matrix(0.05,0,0,0.05,28.950000000000003,0)" xlink:href="#S"/><use transform="matrix(0.05,0,0,0.05,38.95,0)" xlink:href="#D"/><use transform="matrix(0.05,0,0,0.05,48.95,0)" xlink:href="#G"/></g><path fill="#333" d="M212-179c-10-28-35-45-73-45-59 0-87 40-87 99 0 60 29 101 89 101 43 0 62-24 78-52l27 14C228-24 195 4 139 4 59 4 22-46 18-125c-6-104 99-153 187-111 19 9 31 26 39 46" id="ac"/><path fill="#333" d="M84 4C-5 8 30-112 23-190h32v120c0 31 7 50 39 49 72-2 45-101 50-169h31l1 190h-30c-1-10 1-25-2-33-11 22-28 36-60 37" id="ad"/><g id="u"><use transform="matrix(0.05,0,0,0.05,0,0)" xlink:href="#ac"/><use transform="matrix(0.05,0,0,0.05,12.950000000000001,0)" xlink:href="#ad"/><use transform="matrix(0.05,0,0,0.05,22.950000000000003,0)" xlink:href="#H"/><use transform="matrix(0.05,0,0,0.05,31.950000000000003,0)" xlink:href="#Q"/><use transform="matrix(0.05,0,0,0.05,36.95,0)" xlink:href="#U"/><use transform="matrix(0.05,0,0,0.05,46.95,0)" xlink:href="#O"/><use transform="matrix(0.05,0,0,0.05,61.900000000000006,0)" xlink:href="#D"/><use transform="matrix(0.05,0,0,0.05,71.9,0)" xlink:href="#G"/></g><g id="v"><use transform="matrix(0.05,0,0,0.05,0,0)" xlink:href="#F"/><use transform="matrix(0.05,0,0,0.05,3.95,0)" xlink:href="#E"/><use transform="matrix(0.05,0,0,0.05,13.949999999999998,0)" xlink:href="#H"/><use transform="matrix(0.05,0,0,0.05,22.95,0)" xlink:href="#Q"/><use transform="matrix(0.05,0,0,0.05,27.950000000000003,0)" xlink:href="#X"/><use transform="matrix(0.05,0,0,0.05,37.95,0)" xlink:href="#R"/><use transform="matrix(0.05,0,0,0.05,47.95,0)" xlink:href="#E"/><use transform="matrix(0.05,0,0,0.05,57.95,0)" xlink:href="#O"/><use transform="matrix(0.05,0,0,0.05,72.9,0)" xlink:href="#D"/></g><g id="w"><use transform="matrix(0.05,0,0,0.05,0,0)" xlink:href="#aa"/><use transform="matrix(0.05,0,0,0.05,5,0)" xlink:href="#J"/><use transform="matrix(0.05,0,0,0.05,8.95,0)" xlink:href="#G"/><use transform="matrix(0.05,0,0,0.05,14.899999999999999,0)" xlink:href="#H"/><use transform="matrix(0.05,0,0,0.05,23.9,0)" xlink:href="#Q"/><use transform="matrix(0.05,0,0,0.05,28.899999999999995,0)" xlink:href="#X"/><use transform="matrix(0.05,0,0,0.05,38.9,0)" xlink:href="#R"/><use transform="matrix(0.05,0,0,0.05,48.9,0)" xlink:href="#E"/><use transform="matrix(0.05,0,0,0.05,58.900000000000006,0)" xlink:href="#O"/><use transform="matrix(0.05,0,0,0.05,73.85,0)" xlink:href="#D"/></g><g id="x"><use transform="matrix(0.05,0,0,0.05,0,0)" xlink:href="#P"/><use transform="matrix(0.05,0,0,0.05,12,0)" xlink:href="#E"/><use transform="matrix(0.05,0,0,0.05,22,0)" xlink:href="#F"/><use transform="matrix(0.05,0,0,0.05,25.950000000000003,0)" xlink:href="#D"/></g><path fill="#333" d="M108 0H70L1-190h34L89-25l56-165h34" id="ae"/><g id="y"><use transform="matrix(0.05,0,0,0.05,0,0)" xlink:href="#ae"/><use transform="matrix(0.05,0,0,0.05,9,0)" xlink:href="#D"/><use transform="matrix(0.05,0,0,0.05,19,0)" xlink:href="#I"/><use transform="matrix(0.05,0,0,0.05,29,0)" xlink:href="#J"/><use transform="matrix(0.05,0,0,0.05,32.95,0)" xlink:href="#V"/><use transform="matrix(0.05,0,0,0.05,41.95,0)" xlink:href="#F"/><use transform="matrix(0.05,0,0,0.05,45.900000000000006,0)" xlink:href="#D"/><use transform="matrix(0.05,0,0,0.05,55.900000000000006,0)" xlink:href="#X"/><use transform="matrix(0.05,0,0,0.05,65.9,0)" xlink:href="#J"/><use transform="matrix(0.05,0,0,0.05,69.85000000000001,0)" xlink:href="#W"/></g><g id="z"><use transform="matrix(0.05,0,0,0.05,0,0)" xlink:href="#V"/><use transform="matrix(0.05,0,0,0.05,9,0)" xlink:href="#ad"/><use transform="matrix(0.05,0,0,0.05,19,0)" xlink:href="#H"/><use transform="matrix(0.05,0,0,0.05,28,0)" xlink:href="#Q"/><use transform="matrix(0.05,0,0,0.05,33,0)" xlink:href="#U"/><use transform="matrix(0.05,0,0,0.05,43,0)" xlink:href="#O"/><use transform="matrix(0.05,0,0,0.05,57.95,0)" xlink:href="#D"/><use transform="matrix(0.05,0,0,0.05,67.95,0)" xlink:href="#G"/><use transform="matrix(0.05,0,0,0.05,73.9,0)" xlink:href="#X"/><use transform="matrix(0.05,0,0,0.05,83.9,0)" xlink:href="#J"/><use transform="matrix(0.05,0,0,0.05,87.85000000000001,0)" xlink:href="#W"/></g><g id="A"><use transform="matrix(0.05,0,0,0.05,0,0)" xlink:href="#W"/><use transform="matrix(0.05,0,0,0.05,10,0)" xlink:href="#E"/><use transform="matrix(0.05,0,0,0.05,20,0)" xlink:href="#Q"/><use transform="matrix(0.05,0,0,0.05,25,0)" xlink:href="#D"/></g><g id="B"><use transform="matrix(0.05,0,0,0.05,0,0)" xlink:href="#W"/><use transform="matrix(0.05,0,0,0.05,10,0)" xlink:href="#E"/><use transform="matrix(0.05,0,0,0.05,20,0)" xlink:href="#Q"/><use transform="matrix(0.05,0,0,0.05,25,0)" xlink:href="#D"/><use transform="matrix(0.05,0,0,0.05,35,0)" xlink:href="#Q"/><use transform="matrix(0.05,0,0,0.05,40,0)" xlink:href="#J"/><use transform="matrix(0.05,0,0,0.05,43.95,0)" xlink:href="#O"/><use transform="matrix(0.05,0,0,0.05,58.900000000000006,0)" xlink:href="#D"/></g></defs></g></svg>